# xmcd
#
# Track frame offsets: 
#        150
#        22897
#        38633
#        57166
#        67859
#        91187
#        99798
#        118555
#        136762
#        154068
#        169161
#        183998
#        202656
#
# Disc length: 2963 seconds
#
# Revision: 0
# Processed by: cddbd v1.5.2PL0 Copyright (c) Steve Scherf et al.
# Submitted via: ExactAudioCopy v0.95b4
#
DISCID=8f0b910d
DTITLE=Matt Rae - Telepathic
DYEAR=2006
DGENRE=
TTITLE0=Caravan
TTITLE1=Clawdady
TTITLE2=Diesel
TTITLE3=Bumper Cars
TTITLE4=The Camel
TTITLE5=Bee Hive
TTITLE6=Big Jim's Boogoe
TTITLE7=Binger
TTITLE8=Rumble Seat
TTITLE9=Mr. Honalai
TTITLE10=G-Force
TTITLE11=Kentucky Waterfall
TTITLE12=Rolling Fog
EXTD=
EXTT0=
EXTT1=
EXTT2=
EXTT3=
EXTT4=
EXTT5=
EXTT6=
EXTT7=
EXTT8=
EXTT9=
EXTT10=
EXTT11=
EXTT12=
PLAYORDER=
